# xmcd CD database file
#
# Track frame offsets:
#	150
#	13064
#	29644
#	39285
#	48630
#	70654
#	87718
#	105452
#	119175
#	158525
#	177002
#	188518
#	213188
#	229701
#	246605
#	260985
#	283214
#	301089
#
# Disc length: 4355 seconds
#
# Revision: 0
# Processed by: cddbd v1.5.2PL0 Copyright (c) Steve Scherf et al.
# Submitted via: CDex 1.51
#
DISCID=02110112
DTITLE=Nils Landgren - Chrismas with my friends
DYEAR=2006
DGENRE=Jazz
TTITLE0=Maybe This Chrismas
TTITLE1=Ave Marie Stella
TTITLE2=Bereden Väg För Herran
TTITLE3=Jul Jul Strålande Jul
TTITLE4=When You Wish Upon A Star
TTITLE5=Chrismas Song
TTITLE6=Aria: Lascia Ch'io Pianga
TTITLE7=Nu Tämndas Tusen Julejus
TTITLE8=In Dulce Jubilo - Det Kimer Nå Til Julefest
TTITLE9=Gläns Över Sjö Och Strand
TTITLE10=Det Stålar en Stärna
TTITLE11=Es Ist Ein Ros Entsprungen
TTITLE12=White Chrismas
TTITLE13=What Child It is
TTITLE14=När Juldagsmorgon Glimmar
TTITLE15=Have Yourself a Merry Little Chrismas
TTITLE16=Till Betlehem
TTITLE17=Stille Nacht, Heilige Nacht
EXTD=YEAR: 2006
EXTT0=
EXTT1=
EXTT2=
EXTT3=
EXTT4=
EXTT5=
EXTT6=
EXTT7=
EXTT8=
EXTT9=
EXTT10=
EXTT11=
EXTT12=
EXTT13=
EXTT14=
EXTT15=
EXTT16=
EXTT17=
PLAYORDER=
